<svg width="32" height="26" viewBox="0 0 32 26" fill="none" xmlns="http://www.w3.org/2000/svg">
<path id="icon" d="M3.2 25.6C2.32 25.6 1.56667 25.2867 0.94 24.66C0.313333 24.0333 0 23.28 0 22.4V3.2C0 2.32 0.313333 1.56667 0.94 0.94C1.56667 0.313333 2.32 0 3.2 0H28.8C29.68 0 30.4333 0.313333 31.06 0.94C31.6867 1.56667 32 2.32 32 3.2V22.4C32 23.28 31.6867 24.0333 31.06 24.66C30.4333 25.2867 29.68 25.6 28.8 25.6H3.2ZM16 14.4L3.2 6.4V22.4H28.8V6.4L16 14.4ZM16 11.2L28.8 3.2H3.2L16 11.2ZM3.2 6.4V3.2V22.4V6.4Z" fill="#6B3783"/>
</svg>
