<svg width="32" height="32" viewBox="0 0 32 32" fill="none" xmlns="http://www.w3.org/2000/svg">
<path d="M3.2 27.4C2.32 27.4 1.56667 27.0867 0.94 26.46C0.313333 25.8333 0 25.08 0 24.2V8.2C0 7.32 0.313333 6.56667 0.94 5.94C1.56667 5.31333 2.32 5 3.2 5H28.8C29.68 5 30.4333 5.31333 31.06 5.94C31.6867 6.56667 32 7.32 32 8.2V24.2C32 25.08 31.6867 25.8333 31.06 26.46C30.4333 27.0867 29.68 27.4 28.8 27.4H3.2ZM3.2 24.2H28.8V8.2H3.2V24.2ZM9.6 22.6H22.4V19.4H9.6V22.6ZM4.8 17.8H8V14.6H4.8V17.8ZM9.6 17.8H12.8V14.6H9.6V17.8ZM14.4 17.8H17.6V14.6H14.4V17.8ZM19.2 17.8H22.4V14.6H19.2V17.8ZM24 17.8H27.2V14.6H24V17.8ZM4.8 13H8V9.8H4.8V13ZM9.6 13H12.8V9.8H9.6V13ZM14.4 13H17.6V9.8H14.4V13ZM19.2 13H22.4V9.8H19.2V13ZM24 13H27.2V9.8H24V13Z" fill="#6B3783"/>
</svg>
