<svg width="21" height="20" viewBox="0 0 21 20" fill="none" xmlns="http://www.w3.org/2000/svg">
<path id="icon" d="M10.3335 20.0001C8.95016 20.0001 7.65016 19.7376 6.4335 19.2126C5.21683 18.6876 4.1585 17.9751 3.2585 17.0751C2.3585 16.1751 1.646 15.1167 1.121 13.9001C0.595996 12.6834 0.333496 11.3834 0.333496 10.0001C0.333496 8.61673 0.595996 7.31673 1.121 6.10006C1.646 4.88339 2.3585 3.82506 3.2585 2.92506C4.1585 2.02506 5.21683 1.31256 6.4335 0.787561C7.65016 0.262561 8.95016 6.10352e-05 10.3335 6.10352e-05C11.7168 6.10352e-05 13.0168 0.262561 14.2335 0.787561C15.4502 1.31256 16.5085 2.02506 17.4085 2.92506C18.3085 3.82506 19.021 4.88339 19.546 6.10006C20.071 7.31673 20.3335 8.61673 20.3335 10.0001C20.3335 11.3834 20.071 12.6834 19.546 13.9001C19.021 15.1167 18.3085 16.1751 17.4085 17.0751C16.5085 17.9751 15.4502 18.6876 14.2335 19.2126C13.0168 19.7376 11.7168 20.0001 10.3335 20.0001ZM10.3335 18.0001C12.5668 18.0001 14.4585 17.2251 16.0085 15.6751C17.5585 14.1251 18.3335 12.2334 18.3335 10.0001C18.3335 7.76673 17.5585 5.87506 16.0085 4.32506C14.4585 2.77506 12.5668 2.00006 10.3335 2.00006C8.10016 2.00006 6.2085 2.77506 4.6585 4.32506C3.1085 5.87506 2.3335 7.76673 2.3335 10.0001C2.3335 12.2334 3.1085 14.1251 4.6585 15.6751C6.2085 17.2251 8.10016 18.0001 10.3335 18.0001Z" fill="#554848"/>
</svg>
